<svg width="28" height="28" viewBox="0 0 28 28" fill="none" xmlns="http://www.w3.org/2000/svg">
<path fill-rule="evenodd" clip-rule="evenodd" d="M14 0.666687C6.63996 0.666687 0.666626 6.64002 0.666626 14C0.666626 21.36 6.63996 27.3334 14 27.3334C21.36 27.3334 27.3333 21.36 27.3333 14C27.3333 6.64002 21.36 0.666687 14 0.666687ZM7.42663 22.3734C7.99996 21.1734 11.4933 20 14 20C16.5066 20 20.0133 21.1734 20.5733 22.3734C18.76 23.8134 16.48 24.6667 14 24.6667C11.52 24.6667 9.23996 23.8134 7.42663 22.3734ZM14 17.3334C15.9466 17.3334 20.5733 18.12 22.48 20.44C23.84 18.6534 24.6666 16.4267 24.6666 14C24.6666 8.12002 19.88 3.33335 14 3.33335C8.11996 3.33335 3.33329 8.12002 3.33329 14C3.33329 16.4267 4.15996 18.6534 5.51996 20.44C7.42663 18.12 12.0533 17.3334 14 17.3334ZM14 6.00002C11.4133 6.00002 9.33329 8.08002 9.33329 10.6667C9.33329 13.2534 11.4133 15.3334 14 15.3334C16.5866 15.3334 18.6666 13.2534 18.6666 10.6667C18.6666 8.08002 16.5866 6.00002 14 6.00002ZM12 10.6667C12 11.7734 12.8933 12.6667 14 12.6667C15.1066 12.6667 16 11.7734 16 10.6667C16 9.56002 15.1066 8.66669 14 8.66669C12.8933 8.66669 12 9.56002 12 10.6667Z" fill="#ED3237"/>
</svg>
