<svg width="28" height="28" viewBox="0 0 28 28" fill="none" xmlns="http://www.w3.org/2000/svg">
<path fill-rule="evenodd" clip-rule="evenodd" d="M22.3951 13.96C21.9417 14.7867 21.0617 15.3334 20.0617 15.3334H10.1284L8.66174 18H24.6617V20.6667H8.66174C6.63508 20.6667 5.35508 18.4934 6.32841 16.7067L8.12841 13.4534L3.32841 3.33335H0.661743V0.666687H5.02174L6.27508 3.33335H26.0084C27.0217 3.33335 27.6617 4.42669 27.1684 5.30669L22.3951 13.96ZM23.7417 6.00002H7.54174L10.7017 12.6667H20.0617L23.7417 6.00002ZM8.66174 22C7.19508 22 6.00841 23.2 6.00841 24.6667C6.00841 26.1334 7.19508 27.3334 8.66174 27.3334C10.1284 27.3334 11.3284 26.1334 11.3284 24.6667C11.3284 23.2 10.1284 22 8.66174 22ZM19.3417 24.6667C19.3417 23.2 20.5284 22 21.9951 22C23.4617 22 24.6617 23.2 24.6617 24.6667C24.6617 26.1334 23.4617 27.3334 21.9951 27.3334C20.5284 27.3334 19.3417 26.1334 19.3417 24.6667Z" fill="#ED3237"/>
</svg>
